<svg xmlns="http://www.w3.org/2000/svg" version="1.1" xmlns:xlink="http://www.w3.org/1999/xlink" xmlns:svgjs="http://svgjs.dev/svgjs" width="1500" height="397" viewBox="0 0 1500 397"><g transform="matrix(1,0,0,1,-0.9090909090909918,-0.9341421104826679)"><svg viewBox="0 0 396 105" data-background-color="#ffffff" preserveAspectRatio="xMidYMid meet" height="397" width="1500" xmlns="http://www.w3.org/2000/svg" xmlns:xlink="http://www.w3.org/1999/xlink"><g id="tight-bounds" transform="matrix(1,0,0,1,0.2400000000000091,0.24706529370448038)"><svg viewBox="0 0 395.52 104.50586941259103" height="104.50586941259103" width="395.52"><g><svg viewBox="0 0 566.9074810590295 149.7905521454689" height="104.50586941259103" width="395.52"><g transform="matrix(1,0,0,1,171.38748105902957,8.805766284221477)"><svg viewBox="0 0 395.5199999999999 132.17901957702594" height="132.17901957702594" width="395.5199999999999"><g id="textblocktransform"><svg viewBox="0 0 395.5199999999999 132.17901957702594" height="132.17901957702594" width="395.5199999999999" id="textblock"><g><svg viewBox="0 0 395.5199999999999 91.48295003965106" height="91.48295003965106" width="395.5199999999999"><g transform="matrix(1,0,0,1,0,0)"><svg width="395.5199999999999" viewBox="1.9 -43.35 189.13 43.75" height="91.48295003965106" data-palette-color="#335a02"><path d="M1.9 0L1.9-42.95 15.1-42.95Q18.25-42.95 19.98-41.53 21.7-40.1 22.3-37.52 22.9-34.95 22.9-30.95L22.9-30.95Q22.9-27.3 21.95-25.25 21-23.2 18.65-22.4L18.65-22.4Q20.6-22 21.48-20.45 22.35-18.9 22.35-16.25L22.35-16.25 22.25 0 13.85 0 13.85-16.8Q13.85-18.6 13.15-19.1 12.45-19.6 10.6-19.6L10.6-19.6 10.6 0 1.9 0ZM10.65-27.05L12.7-27.05Q14.5-27.05 14.5-30.95L14.5-30.95Q14.5-32.65 14.35-33.5 14.2-34.35 13.8-34.68 13.4-35 12.65-35L12.65-35 10.65-35 10.65-27.05ZM33.65 0L25.35 0 25.35-42.95 33.65-42.95 33.65 0ZM37.1 0L37.1-42.95 48.95-42.95Q53.55-42.95 55.85-40.4 58.15-37.85 58.2-32.85L58.2-32.85 58.3-12.75Q58.35-6.4 56.1-3.2 53.85 0 48.65 0L48.65 0 37.1 0ZM45.75-7.6L47.25-7.6Q49.6-7.6 49.6-9.9L49.6-9.9 49.6-32.05Q49.6-33.5 49.37-34.23 49.15-34.95 48.55-35.2 47.95-35.45 46.7-35.45L46.7-35.45 45.75-35.45 45.75-7.6ZM79.49 0L61.74 0 61.74-42.95 78.94-42.95 78.94-34.65 70.49-34.65 70.49-26.3 78.59-26.3 78.59-18.2 70.49-18.2 70.49-8.35 79.49-8.35 79.49 0ZM98.04 0L86.29 0 80.99-43 89.19-43 92.34-13.75 95.14-43 103.34-43 98.04 0ZM123.54 0L105.79 0 105.79-42.95 122.99-42.95 122.99-34.65 114.54-34.65 114.54-26.3 122.64-26.3 122.64-18.2 114.54-18.2 114.54-8.35 123.54-8.35 123.54 0ZM126.39 0L126.39-42.95 139.59-42.95Q142.74-42.95 144.46-41.53 146.19-40.1 146.79-37.52 147.39-34.95 147.39-30.95L147.39-30.95Q147.39-27.3 146.44-25.25 145.49-23.2 143.14-22.4L143.14-22.4Q145.09-22 145.96-20.45 146.84-18.9 146.84-16.25L146.84-16.25 146.74 0 138.34 0 138.34-16.8Q138.34-18.6 137.64-19.1 136.94-19.6 135.09-19.6L135.09-19.6 135.09 0 126.39 0ZM135.14-27.05L137.19-27.05Q138.99-27.05 138.99-30.95L138.99-30.95Q138.99-32.65 138.84-33.5 138.69-34.35 138.29-34.68 137.89-35 137.14-35L137.14-35 135.14-35 135.14-27.05ZM160.43 0.4Q154.58 0.4 151.98-2.5 149.38-5.4 149.38-11.85L149.38-11.85 149.38-16.05 157.83-16.05 157.83-10.7Q157.83-7.5 159.88-7.5L159.88-7.5Q161.03-7.5 161.48-8.18 161.93-8.85 161.93-10.45L161.93-10.45Q161.93-12.55 161.43-13.93 160.93-15.3 160.16-16.23 159.38-17.15 157.38-19.1L157.38-19.1 153.68-22.8Q149.38-27 149.38-32.1L149.38-32.1Q149.38-37.6 151.91-40.48 154.43-43.35 159.28-43.35L159.28-43.35Q165.08-43.35 167.63-40.28 170.18-37.2 170.18-30.65L170.18-30.65 161.43-30.65 161.38-33.6Q161.38-34.45 160.91-34.95 160.43-35.45 159.58-35.45L159.58-35.45Q158.58-35.45 158.08-34.9 157.58-34.35 157.58-33.4L157.58-33.4Q157.58-31.3 159.98-29.05L159.98-29.05 164.98-24.25Q166.73-22.55 167.88-21.03 169.03-19.5 169.73-17.43 170.43-15.35 170.43-12.5L170.43-12.5Q170.43-6.15 168.11-2.88 165.78 0.4 160.43 0.4L160.43 0.4ZM191.03 0L173.28 0 173.28-42.95 190.48-42.95 190.48-34.65 182.03-34.65 182.03-26.3 190.13-26.3 190.13-18.2 182.03-18.2 182.03-8.35 191.03-8.35 191.03 0Z" opacity="1" transform="matrix(1,0,0,1,0,0)" fill="#335a02" class="wordmark-text-0" data-fill-palette-color="primary" id="text-0"></path></svg></g></svg></g><g transform="matrix(1,0,0,1,73.17119999999998,113.07987895321172)"><svg viewBox="0 0 249.17759999999996 19.09914062381422" height="19.09914062381422" width="249.17759999999996"><g transform="matrix(1,0,0,1,0,0)"><svg width="249.17759999999996" viewBox="2.35 -39.65 658.77 50.5" height="19.09914062381422" data-palette-color="#000000"><path d="M7.1-21.05L3.05-21.05 2.35-34.55 7.8-34.55 7.1-21.05ZM16.7-21.05L12.65-21.05 11.95-34.55 17.4-34.55 16.7-21.05ZM44.45 0L38.05 0 38.05-15.5 29.1-15.5 29.1 0 22.75 0 22.75-34.55 29.1-34.55 29.1-20.6 38.05-20.6 38.05-34.55 44.45-34.55 44.45 0ZM59.65-27.15Q64.65-27.15 67.42-23.65 70.2-20.15 70.2-13.25L70.2-13.25Q70.2-6.65 67.4-2.95 64.59 0.75 59.65 0.75L59.65 0.75Q54.7 0.75 51.9-2.88 49.1-6.5 49.1-13.25L49.1-13.25Q49.1-19.95 51.9-23.55 54.7-27.15 59.65-27.15L59.65-27.15ZM59.65-22.5Q57.5-22.5 56.5-20.38 55.5-18.25 55.5-13.25L55.5-13.25Q55.5-8.2 56.5-6.08 57.5-3.95 59.65-3.95L59.65-3.95Q61.8-3.95 62.8-6.08 63.8-8.2 63.8-13.25L63.8-13.25Q63.8-18.3 62.8-20.4 61.8-22.5 59.65-22.5L59.65-22.5ZM86.94-27.15Q90.84-27.15 92.84-23.58 94.84-20 94.84-13.3L94.84-13.3Q94.84-6.8 92.57-3.03 90.29 0.75 86.24 0.75L86.24 0.75Q83.04 0.75 80.89-2.1L80.89-2.1 80.89 10.15 74.74 10.85 74.74-26.45 80.19-26.45 80.44-23.25Q81.74-25.25 83.34-26.2 84.94-27.15 86.94-27.15L86.94-27.15ZM84.59-3.95Q86.49-3.95 87.49-6.13 88.49-8.3 88.49-13.25L88.49-13.25Q88.49-18.45 87.64-20.5 86.79-22.55 84.99-22.55L84.99-22.55Q82.69-22.55 80.89-19.25L80.89-19.25 80.89-6.45Q82.49-3.95 84.59-3.95L84.59-3.95ZM120.89-35.25Q126.99-35.25 130.29-30.8 133.59-26.35 133.59-17.3L133.59-17.3Q133.59-8.35 130.29-3.8 126.99 0.75 120.89 0.75L120.89 0.75Q114.84 0.75 111.51-3.75 108.19-8.25 108.19-17.25L108.19-17.25Q108.19-26.15 111.51-30.7 114.84-35.25 120.89-35.25L120.89-35.25ZM120.89-30.45Q117.84-30.45 116.36-27.4 114.89-24.35 114.89-17.25L114.89-17.25Q114.89-10.1 116.39-7.13 117.89-4.15 120.89-4.15L120.89-4.15Q123.99-4.15 125.46-7.1 126.94-10.05 126.94-17.3L126.94-17.3Q126.94-24.4 125.44-27.43 123.94-30.45 120.89-30.45L120.89-30.45ZM150.54-27.15Q153.39-27.15 155.04-25.1 156.69-23.05 156.69-19.6L156.69-19.6 156.69 0 150.54 0 150.54-18.9Q150.54-20.8 150.01-21.63 149.49-22.45 148.49-22.45L148.49-22.45Q146.39-22.45 144.34-18.5L144.34-18.5 144.34 0 138.19 0 138.19-26.45 143.54-26.45 143.99-23Q145.34-25.1 146.86-26.13 148.39-27.15 150.54-27.15L150.54-27.15ZM164.73-7.05Q166.43-7.05 167.48-5.9 168.53-4.75 168.53-3.15L168.53-3.15Q168.53-1.55 167.48-0.4 166.43 0.75 164.73 0.75L164.73 0.75Q163.08 0.75 162.01-0.4 160.93-1.55 160.93-3.15L160.93-3.15Q160.93-4.75 162.01-5.9 163.08-7.05 164.73-7.05L164.73-7.05ZM205.33 0L198.48 0 192.38-13.95 191.78-13.95 189.33-13.95 189.33 0 182.98 0 182.98-34.55 191.13-34.55Q203.63-34.55 203.63-24.4L203.63-24.4Q203.63-21.25 202.23-18.82 200.83-16.4 198.03-15.15L198.03-15.15 205.33 0ZM191.43-18.55Q194.38-18.55 195.7-19.95 197.03-21.35 197.03-24.4L197.03-24.4Q197.03-27.25 195.65-28.58 194.28-29.9 191.13-29.9L191.13-29.9 189.33-29.9 189.33-18.55 191.43-18.55ZM208.38-26.45L214.53-26.45 214.53 0 208.38 0 208.38-26.45ZM211.43-39.65Q213.08-39.65 214.1-38.6 215.13-37.55 215.13-35.9L215.13-35.9Q215.13-34.3 214.1-33.25 213.08-32.2 211.43-32.2L211.43-32.2Q209.78-32.2 208.75-33.25 207.73-34.3 207.73-35.9L207.73-35.9Q207.73-37.55 208.75-38.6 209.78-39.65 211.43-39.65L211.43-39.65ZM233.17-37.7L239.32-37.05 239.32 0 233.87 0 233.57-3.05Q231.22 0.75 227.52 0.75L227.52 0.75Q223.42 0.75 221.25-2.93 219.07-6.6 219.07-13.2L219.07-13.2Q219.07-17.4 220.2-20.58 221.32-23.75 223.32-25.45 225.32-27.15 227.92-27.15L227.92-27.15Q231.12-27.15 233.17-24.5L233.17-24.5 233.17-37.7ZM229.27-3.9Q230.42-3.9 231.35-4.7 232.27-5.5 233.17-7L233.17-7 233.17-19.85Q231.57-22.55 229.52-22.55L229.52-22.55Q225.47-22.55 225.47-13.25L225.47-13.25Q225.47-8.2 226.47-6.05 227.47-3.9 229.27-3.9L229.27-3.9ZM263.87-13.85Q263.87-13.4 263.72-11.3L263.72-11.3 250.07-11.3Q250.27-7.2 251.5-5.58 252.72-3.95 254.97-3.95L254.97-3.95Q256.52-3.95 257.77-4.48 259.02-5 260.47-6.15L260.47-6.15 263.02-2.65Q259.52 0.75 254.62 0.75L254.62 0.75Q249.42 0.75 246.65-2.85 243.87-6.45 243.87-13L243.87-13Q243.87-19.55 246.52-23.35 249.17-27.15 254.02-27.15L254.02-27.15Q258.67-27.15 261.27-23.78 263.87-20.4 263.87-13.85L263.87-13.85ZM257.87-15.3L257.87-15.65Q257.87-19.4 256.97-21.13 256.07-22.85 254.07-22.85L254.07-22.85Q252.22-22.85 251.25-21.18 250.27-19.5 250.07-15.3L250.07-15.3 257.87-15.3ZM278.17-34.55L295.32-34.55 294.67-29.8 284.52-29.8 284.52-19.9 293.37-19.9 293.37-15.2 284.52-15.2 284.52-4.8 295.32-4.8 295.32 0 278.17 0 278.17-34.55ZM316.56-6.4Q316.56-5.1 316.91-4.48 317.26-3.85 318.06-3.45L318.06-3.45 316.81 0.65Q314.76 0.4 313.54-0.45 312.31-1.3 311.71-3.05L311.71-3.05Q309.41 0.75 305.26 0.75L305.26 0.75Q301.96 0.75 300.01-1.48 298.06-3.7 298.06-7.4L298.06-7.4Q298.06-11.7 300.74-13.95 303.41-16.2 308.51-16.2L308.51-16.2 310.56-16.2 310.56-18.05Q310.56-20.55 309.69-21.58 308.81-22.6 306.86-22.6L306.86-22.6Q304.51-22.6 301.01-21.3L301.01-21.3 299.61-25.3Q301.61-26.2 303.76-26.68 305.91-27.15 307.86-27.15L307.86-27.15Q316.56-27.15 316.56-18.35L316.56-18.35 316.56-6.4ZM306.91-3.7Q309.31-3.7 310.56-7L310.56-7 310.56-12.55 309.11-12.55Q306.56-12.55 305.39-11.4 304.21-10.25 304.21-7.85L304.21-7.85Q304.21-5.8 304.91-4.75 305.61-3.7 306.91-3.7L306.91-3.7ZM329.71-27.15Q334.41-27.15 337.66-24.05L337.66-24.05 335.31-20.7Q333.91-21.7 332.66-22.2 331.41-22.7 330.11-22.7L330.11-22.7Q328.66-22.7 327.84-21.93 327.01-21.15 327.01-19.8L327.01-19.8Q327.01-18.45 327.94-17.63 328.86-16.8 331.66-15.7L331.66-15.7Q335.11-14.35 336.76-12.5 338.41-10.65 338.41-7.55L338.41-7.55Q338.41-3.7 335.71-1.48 333.01 0.75 328.86 0.75L328.86 0.75Q326.16 0.75 323.89-0.23 321.61-1.2 319.91-2.95L319.91-2.95 322.91-6.25Q325.71-3.8 328.61-3.8L328.61-3.8Q330.26-3.8 331.21-4.67 332.16-5.55 332.16-7.1L332.16-7.1Q332.16-8.25 331.76-8.97 331.36-9.7 330.36-10.33 329.36-10.95 327.36-11.7L327.36-11.7Q323.91-13.05 322.44-14.85 320.96-16.65 320.96-19.45L320.96-19.45Q320.96-22.8 323.34-24.98 325.71-27.15 329.71-27.15L329.71-27.15ZM360.91-26.45L353.91 0.1Q352.61 4.9 349.71 7.65 346.81 10.4 341.96 10.85L341.96 10.85 341.26 6.5Q344.41 5.85 345.98 4.42 347.56 3 348.46 0L348.46 0 346.16 0 339.46-26.45 345.71-26.45 350.11-4.1 354.81-26.45 360.91-26.45ZM366.31-7.05Q368.01-7.05 369.06-5.9 370.11-4.75 370.11-3.15L370.11-3.15Q370.11-1.55 369.06-0.4 368.01 0.75 366.31 0.75L366.31 0.75Q364.66 0.75 363.58-0.4 362.51-1.55 362.51-3.15L362.51-3.15Q362.51-4.75 363.58-5.9 364.66-7.05 366.31-7.05L366.31-7.05ZM384.55-34.55L401.7-34.55 401.05-29.8 390.9-29.8 390.9-19.9 399.75-19.9 399.75-15.2 390.9-15.2 390.9-4.8 401.7-4.8 401.7 0 384.55 0 384.55-34.55ZM423.5-26.45L417.4-14.15 424.55 0 418.05 0 413.65-10.65 409.35 0 403 0 410.15-13.95 403.7-26.45 410.1-26.45 413.75-17.25 417.3-26.45 423.5-26.45ZM439.45-27.15Q443.35-27.15 445.35-23.58 447.35-20 447.35-13.3L447.35-13.3Q447.35-6.8 445.07-3.03 442.8 0.75 438.75 0.75L438.75 0.75Q435.55 0.75 433.4-2.1L433.4-2.1 433.4 10.15 427.25 10.85 427.25-26.45 432.7-26.45 432.95-23.25Q434.25-25.25 435.85-26.2 437.45-27.15 439.45-27.15L439.45-27.15ZM437.1-3.95Q439-3.95 440-6.13 441-8.3 441-13.25L441-13.25Q441-18.45 440.15-20.5 439.3-22.55 437.5-22.55L437.5-22.55Q435.2-22.55 433.4-19.25L433.4-19.25 433.4-6.45Q435-3.95 437.1-3.95L437.1-3.95ZM457.54 0.75Q454.84 0.75 453.27-0.93 451.69-2.6 451.69-5.4L451.69-5.4 451.69-37.05 457.84-37.7 457.84-5.65Q457.84-5 458.14-4.6 458.44-4.2 459.04-4.2L459.04-4.2Q459.39-4.2 459.72-4.3 460.04-4.4 460.14-4.4L460.14-4.4 461.34-0.2Q459.64 0.75 457.54 0.75L457.54 0.75ZM473.79-27.15Q478.79-27.15 481.56-23.65 484.34-20.15 484.34-13.25L484.34-13.25Q484.34-6.65 481.54-2.95 478.74 0.75 473.79 0.75L473.79 0.75Q468.84 0.75 466.04-2.88 463.24-6.5 463.24-13.25L463.24-13.25Q463.24-19.95 466.04-23.55 468.84-27.15 473.79-27.15L473.79-27.15ZM473.79-22.5Q471.64-22.5 470.64-20.38 469.64-18.25 469.64-13.25L469.64-13.25Q469.64-8.2 470.64-6.08 471.64-3.95 473.79-3.95L473.79-3.95Q475.94-3.95 476.94-6.08 477.94-8.2 477.94-13.25L477.94-13.25Q477.94-18.3 476.94-20.4 475.94-22.5 473.79-22.5L473.79-22.5ZM500.54-27.1Q501.69-27.1 502.59-26.75L502.59-26.75 501.59-20.85Q500.59-21.1 499.74-21.1L499.74-21.1Q497.84-21.1 496.74-19.45 495.64-17.8 495.04-14.55L495.04-14.55 495.04 0 488.89 0 488.89-26.45 494.24-26.45 494.69-21.85Q496.54-27.1 500.54-27.1L500.54-27.1ZM524.29-13.85Q524.29-13.4 524.13-11.3L524.13-11.3 510.49-11.3Q510.69-7.2 511.91-5.58 513.13-3.95 515.38-3.95L515.38-3.95Q516.94-3.95 518.19-4.48 519.44-5 520.88-6.15L520.88-6.15 523.44-2.65Q519.94 0.75 515.04 0.75L515.04 0.75Q509.84 0.75 507.06-2.85 504.29-6.45 504.29-13L504.29-13Q504.29-19.55 506.94-23.35 509.59-27.15 514.44-27.15L514.44-27.15Q519.09-27.15 521.69-23.78 524.29-20.4 524.29-13.85L524.29-13.85ZM518.29-15.3L518.29-15.65Q518.29-19.4 517.38-21.13 516.49-22.85 514.49-22.85L514.49-22.85Q512.63-22.85 511.66-21.18 510.69-19.5 510.49-15.3L510.49-15.3 518.29-15.3ZM564.63-34.55L566.83 0 560.78 0 560.18-14.6Q559.88-22.6 559.88-26L559.88-26 559.93-28.6 555.18-3.8 549.18-3.8 544.23-28.65Q544.28-27.15 544.28-24.05L544.28-24.05Q544.28-18.8 544.08-14.4L544.08-14.4 543.53 0 537.58 0 539.78-34.55 547.78-34.55 552.28-10.2 556.48-34.55 564.63-34.55ZM581.03-27.15Q586.03-27.15 588.8-23.65 591.58-20.15 591.58-13.25L591.58-13.25Q591.58-6.65 588.78-2.95 585.98 0.75 581.03 0.75L581.03 0.75Q576.08 0.75 573.28-2.88 570.48-6.5 570.48-13.25L570.48-13.25Q570.48-19.95 573.28-23.55 576.08-27.15 581.03-27.15L581.03-27.15ZM581.03-22.5Q578.88-22.5 577.88-20.38 576.88-18.25 576.88-13.25L576.88-13.25Q576.88-8.2 577.88-6.08 578.88-3.95 581.03-3.95L581.03-3.95Q583.18-3.95 584.18-6.08 585.18-8.2 585.18-13.25L585.18-13.25Q585.18-18.3 584.18-20.4 583.18-22.5 581.03-22.5L581.03-22.5ZM607.77-27.1Q608.92-27.1 609.82-26.75L609.82-26.75 608.82-20.85Q607.82-21.1 606.97-21.1L606.97-21.1Q605.07-21.1 603.97-19.45 602.87-17.8 602.27-14.55L602.27-14.55 602.27 0 596.12 0 596.12-26.45 601.47-26.45 601.92-21.85Q603.77-27.1 607.77-27.1L607.77-27.1ZM631.52-13.85Q631.52-13.4 631.37-11.3L631.37-11.3 617.72-11.3Q617.92-7.2 619.15-5.58 620.37-3.95 622.62-3.95L622.62-3.95Q624.17-3.95 625.42-4.48 626.67-5 628.12-6.15L628.12-6.15 630.67-2.65Q627.17 0.75 622.27 0.75L622.27 0.75Q617.07 0.75 614.3-2.85 611.52-6.45 611.52-13L611.52-13Q611.52-19.55 614.17-23.35 616.82-27.15 621.67-27.15L621.67-27.15Q626.32-27.15 628.92-23.78 631.52-20.4 631.52-13.85L631.52-13.85ZM625.52-15.3L625.52-15.65Q625.52-19.4 624.62-21.13 623.72-22.85 621.72-22.85L621.72-22.85Q619.87-22.85 618.9-21.18 617.92-19.5 617.72-15.3L617.72-15.3 625.52-15.3ZM638.32-7.05Q640.02-7.05 641.07-5.9 642.12-4.75 642.12-3.15L642.12-3.15Q642.12-1.55 641.07-0.4 640.02 0.75 638.32 0.75L638.32 0.75Q636.67 0.75 635.59-0.4 634.52-1.55 634.52-3.15L634.52-3.15Q634.52-4.75 635.59-5.9 636.67-7.05 638.32-7.05L638.32-7.05ZM650.82-21.05L646.77-21.05 646.07-34.55 651.52-34.55 650.82-21.05ZM660.42-21.05L656.37-21.05 655.67-34.55 661.12-34.55 660.42-21.05Z" opacity="1" transform="matrix(1,0,0,1,0,0)" fill="#000000" class="slogan-text-1" data-fill-palette-color="secondary" id="text-1"></path></svg></g></svg></g></svg></g></svg></g><g><svg viewBox="0 0 149.7905521454689 149.7905521454689" height="149.7905521454689" width="149.7905521454689"><g><svg xmlns="http://www.w3.org/2000/svg" xmlns:xlink="http://www.w3.org/1999/xlink" version="1.0" x="0" y="0" viewBox="20 20 60 60" enable-background="new 0 0 100 100" xml:space="preserve" height="149.7905521454689" width="149.7905521454689" class="icon-icon-0" data-fill-palette-color="accent" id="icon-0"><path d="M20 26.667A6.67 6.67 0 0 1 26.667 33.334V63.334C26.667 72.539 34.128 80 43.333 80S60 72.539 60 63.334V40A3.33 3.33 0 0 1 63.333 36.667 3.33 3.33 0 0 1 66.667 40V56.666C66.667 64.023 72.637 70 80 70V63.334A6.67 6.67 0 0 1 73.333 56.666V40C73.333 34.476 68.854 30 63.333 30S53.333 34.476 53.333 40V63.334C53.333 68.857 48.854 73.334 43.333 73.334S33.333 68.857 33.333 63.334V33.334C33.333 25.973 27.363 20 20 20z" fill="#99a28e" data-fill-palette-color="accent"></path></svg></g></svg></g></svg></g><defs></defs></svg><rect width="395.52" height="104.50586941259103" fill="none" stroke="none" visibility="hidden"></rect></g></svg></g></svg>